<svg version="1.1" id="Layer_1" xmlns="http://www.w3.org/2000/svg" x="0" y="0" viewBox="0 0 42 42" xml:space="preserve"><style>.st1{fill:#fff}</style><radialGradient id="SVGID_1_" cx="7.039" cy="43.044" r="40.604" gradientUnits="userSpaceOnUse"><stop offset="0" stop-color="#ffd676"/><stop offset=".246" stop-color="#f2a454"/><stop offset=".379" stop-color="#f05c3c"/><stop offset=".7" stop-color="#c22f86"/><stop offset=".957" stop-color="#6666ad"/><stop offset=".985" stop-color="#5c6cb2"/></radialGradient><path d="M21 0C9.4 0 0 9.4 0 21s9.4 21 21 21 21-9.4 21-21S32.6 0 21 0z" fill="url(#SVGID_1_)"/><path class="st1" d="M21 10.7c3.4 0 3.8 0 5.2.1 1.2.1 1.9.3 2.4.4.6.2 1 .5 1.5 1 .4.4.7.9 1 1.5.2.5.4 1.1.4 2.4.1 1.3.1 1.8.1 5.2s0 3.8-.1 5.2c-.1 1.2-.3 1.9-.4 2.4-.2.6-.5 1-1 1.5-.4.4-.9.7-1.5 1-.5.2-1.1.4-2.4.4-1.3.1-1.8.1-5.2.1s-3.8 0-5.2-.1c-1.2-.1-1.9-.3-2.4-.4-.6-.2-1-.5-1.5-1-.4-.4-.7-.9-1-1.5-.2-.5-.4-1.1-.4-2.4-.1-1.3-.1-1.8-.1-5.2s0-3.8.1-5.2c.1-1.2.3-1.9.4-2.4.2-.6.5-1 1-1.5.4-.4.9-.7 1.5-1 .5-.2 1.1-.4 2.4-.4 1.4-.1 1.8-.1 5.2-.1m0-2.3c-3.5 0-3.9 0-5.3.1s-2.3.3-3.1.6c-.8.3-1.6.8-2.3 1.5-.7.7-1.1 1.4-1.5 2.3-.3.8-.5 1.7-.6 3.1-.1 1.4-.1 1.8-.1 5.3s0 3.9.1 5.3.3 2.3.6 3.1c.3.8.8 1.6 1.5 2.3.7.7 1.4 1.1 2.3 1.5.8.3 1.7.5 3.1.6 1.4-.1 1.8-.1 5.3-.1s3.9 0 5.3-.1 2.3-.3 3.1-.6c.8-.3 1.6-.8 2.3-1.5.7-.7 1.1-1.4 1.5-2.3.3-.8.5-1.7.6-3.1.1-1.4.1-1.8.1-5.3s0-3.9-.1-5.3-.3-2.3-.6-3.1c-.3-.8-.8-1.6-1.5-2.3-.7-.7-1.4-1.1-2.3-1.5-.8-.3-1.7-.5-3.1-.6-1.4.1-1.8.1-5.3.1z"/><path class="st1" d="M21 14.6c-3.6 0-6.6 2.9-6.6 6.6s2.9 6.6 6.6 6.6 6.6-2.9 6.6-6.6-3-6.6-6.6-6.6zm0 10.9c-2.4 0-4.3-1.9-4.3-4.3s1.9-4.3 4.3-4.3 4.3 1.9 4.3 4.3-1.9 4.3-4.3 4.3z"/><circle class="st1" cx="27.8" cy="14.4" r="1.5"/></svg>